PathFileType	4	(X/Y/Z)	/Users/itak/Documents/Research/Walk-IL/dataset/trc/00308_00010.trc
DataRate	CameraRate	NumFrames	NumMarkers	Units	OrigDataRate	OrigDataStartFrame	OrigNumFrames
100.000000	100.000000	4	53	mm	100.000000	123	495
Frame#	Time	RPSI			LPSI			L3			STRN			T10			C7			CLAV			RBAK			LBAK			LSHO			LUPA			LAEL			LAOL			LWTS			LWPS			LFRA			LIFD			LHPS			LHTS			RSHO			RUPA			RAEL			RAOL			RWTS			RWPS			RFRA			RIFD			RHTS			RHPS			RBHD			LFHD			RFHD			LBHD			LHIP			RHIP			RASI			LASI			LKNE			LTHI			LANK			LTIP			LTOE			LMT1			LMT5			LHEE			RKNE			RTHI			RANK			RTIP			RTOE			RMT1			RMT5			RHEE			
		X1	Y1	Z1	X2	Y2	Z2	X3	Y3	Z3	X4	Y4	Z4	X5	Y5	Z5	X6	Y6	Z6	X7	Y7	Z7	X8	Y8	Z8	X9	Y9	Z9	X10	Y10	Z10	X11	Y11	Z11	X12	Y12	Z12	X13	Y13	Z13	X14	Y14	Z14	X15	Y15	Z15	X16	Y16	Z16	X17	Y17	Z17	X18	Y18	Z18	X19	Y19	Z19	X20	Y20	Z20	X21	Y21	Z21	X22	Y22	Z22	X23	Y23	Z23	X24	Y24	Z24	X25	Y25	Z25	X26	Y26	Z26	X27	Y27	Z27	X28	Y28	Z28	X29	Y29	Z29	X30	Y30	Z30	X31	Y31	Z31	X32	Y32	Z32	X33	Y33	Z33	X34	Y34	Z34	X35	Y35	Z35	X36	Y36	Z36	X37	Y37	Z37	X38	Y38	Z38	X39	Y39	Z39	X40	Y40	Z40	X41	Y41	Z41	X42	Y42	Z42	X43	Y43	Z43	X44	Y44	Z44	X45	Y45	Z45	X46	Y46	Z46	X47	Y47	Z47	X48	Y48	Z48	X49	Y49	Z49	X50	Y50	Z50	X51	Y51	Z51	X52	Y52	Z52	X53	Y53	Z53	

124	1.23	-1116.51123046875	997.0093383789062	-493.8712463378906	-1109.582397460938	995.2581787109375	-668.4568481445312	-1090.012573242188	1074.461669921875	-586.6790771484375	-817.5564575195312	1224.303955078125	-591.743408203125	-1089.038452148438	1190.705200195312	-593.6868896484375	-1014.907531738281	1427.642578125	-620.4681396484375	-869.44873046875	1329.538940429688	-602.3273315429688	-1085.0546875	1301.603515625	-539.5440063476562	-1029.192749023438	1386.884887695312	-723.24658203125	-937.4513549804688	1380.730590820312	-772.6775512695312	-968.6285400390625	1262.105346679688	-842.1104125976562	-972.404541015625	1056.366333007812	-848.3575439453125	-1039.010620117188	1050.751586914062	-792.6627807617188	-914.0166625976562	830.3361206054688	-780.5066528320312	-944.3619995117188	817.763671875	-845.545166015625	-965.3425903320312	951.0204467773438	-850.255859375	-928.4659423828125	646.4383544921875	-772.7353515625	-947.2347412109375	729.2538452148438	-838.0780029296875	-898.5731811523438	729.3165283203125	-792.7612915039062	-957.4608154296875	1406.59423828125	-457.2065124511719	-971.7247924804688	1350.697509765625	-388.8436889648438	-1000.622436523438	1087.57275390625	-324.6586608886719	-1033.498291015625	1078.991821289062	-414.41162109375	-922.8357543945312	852.5	-357.0581970214844	-972.4392700195312	856.268798828125	-288.05029296875	-984.0657348632812	1020.000915527344	-309.4584045410156	-932.4440307617188	667.990478515625	-347.0531005859375	-904.7413330078125	736.8706665039062	-329.0358276367188	-959.3936767578125	743.1266479492188	-281.8694763183594	-1006.75634765625	1570.021240234375	-556.8245239257812	-811.82177734375	1625.207885742188	-621.8173828125	-837.7916259765625	1615.1298828125	-532.85302734375	-964.8121337890625	1576.019165039062	-696.3914184570312	-1041.210327148438	944.625244140625	-763.8645629882812	-1016.041687011719	947.2694702148438	-389.012939453125	-899.2999877929688	950.311279296875	-460.8112182617188	-901.9249267578125	945.881103515625	-712.8154907226562	-1011.585815429688	477.1920776367188	-716.112060546875	-1004.352600097656	619.0999145507812	-741.4977416992188	-1133.876708984375	46.63299560546875	-678.2802734375	-1080.50341796875	257.619384765625	-707.3843994140625	-925.4711303710938	40.02383041381836	-628.9093627929688	-993.6085205078125	33.14606094360352	-584.302978515625	-1011.580505371094	42.18575286865234	-696.485107421875	-1178.365112304688	42.15482711791992	-617.25390625	-880.541015625	489.6148376464844	-410.2083129882812	-919.2659912109375	747.8983154296875	-390.1720886230469	-1091.541870117188	91.02559661865234	-413.9667358398438	-905.9093017578125	365.337646484375	-415.0229187011719	-907.6236572265625	44.28451919555664	-467.85693359375	-964.5662231445312	48.84984588623047	-506.4627380371094	-995.0639038085938	51.74357604980469	-390.0096130371094	-1143.1015625	101.6470184326172	-463.1804504394531	
125	1.24	-1115.572143554688	996.5654296875	-494.8002624511719	-1107.809936523438	994.9904174804688	-669.3496704101562	-1088.60888671875	1074.615112304688	-587.6626586914062	-815.3255615234375	1223.482421875	-590.7188720703125	-1087.067626953125	1190.940063476562	-594.7315673828125	-1011.66552734375	1427.515014648438	-621.0039672851562	-866.8005981445312	1328.864135742188	-601.7117919921875	-1082.960327148438	1301.801635742188	-540.5860595703125	-1025.290161132812	1386.816040039062	-723.89794921875	-933.1613159179688	1380.255249023438	-772.5543212890625	-964.0730590820312	1261.718627929688	-842.2416381835938	-968.3469848632812	1055.985473632812	-848.4456787109375	-1035.64501953125	1050.605834960938	-793.520751953125	-911.0584716796875	829.9169921875	-779.8390502929688	-940.84130859375	817.2706298828125	-845.0906982421875	-961.4959106445312	950.5798950195312	-850.1627197265625	-925.9620361328125	646.0440063476562	-771.887451171875	-944.0228881835938	728.7982788085938	-837.541015625	-895.736083984375	728.7803955078125	-791.783935546875	-955.5299072265625	1406.336059570312	-457.2909240722656	-970.6340942382812	1350.645141601562	-389.0527954101562	-1001.819458007812	1087.940551757812	-324.5492248535156	-1033.763305664062	1079.321655273438	-414.7172241210938	-924.865234375	852.2161254882812	-355.7232055664062	-975.3706665039062	856.6064453125	-287.0474548339844	-985.8344116210938	1020.337280273438	-308.9916687011719	-935.73681640625	667.9581298828125	-344.9863586425781	-907.8712768554688	736.689697265625	-326.9291381835938	-963.0006713867188	743.3968505859375	-280.3667907714844	-1003.719604492188	1569.671875	-557.2407836914062	-808.0030517578125	1624.381713867188	-620.4434204101562	-834.8374633789062	1614.260375976562	-531.6722412109375	-960.4818115234375	1575.7109375	-696.4056396484375	-1039.151000976562	944.3206176757812	-764.4764404296875	-1015.657958984375	947.1033325195312	-389.4937744140625	-898.270263671875	950.1795043945312	-460.7081298828125	-900.3892211914062	945.2427368164062	-712.9347534179688	-1009.948425292969	476.8495178222656	-716.2147827148438	-1002.545227050781	618.7628173828125	-741.6354370117188	-1133.792114257812	46.72355270385742	-678.1699829101562	-1079.508178710938	257.3618469238281	-707.4388427734375	-925.4000854492188	39.93333053588867	-628.8489990234375	-993.659423828125	32.94271087646484	-584.2210083007812	-1011.53955078125	42.21705627441406	-696.3995361328125	-1178.32763671875	42.1829948425293	-617.1823120117188	-872.4259033203125	491.7249755859375	-409.0604858398438	-916.2606811523438	749.1980590820312	-389.7630615234375	-1087.770751953125	95.47023773193359	-413.9851379394531	-898.2569580078125	367.5567321777344	-414.2970581054688	-905.3447265625	44.59593200683594	-467.4035034179688	-961.7625732421875	49.98361587524414	-506.4563903808594	-992.334228515625	53.94264984130859	-389.9811401367188	-1138.86474609375	107.1791000366211	-463.3003540039062	
126	1.25	-1114.481811523438	996.1275024414062	-495.65869140625	-1105.892822265625	994.7123413085938	-670.1741333007812	-1087.07275390625	1074.716796875	-588.6211547851562	-813.0191650390625	1222.70458984375	-589.61865234375	-1084.9599609375	1191.122314453125	-595.7675170898438	-1008.358093261719	1427.366333007812	-621.4663696289062	-864.0992431640625	1328.225708007812	-601.0162963867188	-1080.791748046875	1301.933837890625	-541.6170654296875	-1021.309875488281	1386.728881835938	-724.4885864257812	-928.7778930664062	1379.806518554688	-772.3524780273438	-959.4075927734375	1261.362182617188	-842.3219604492188	-964.15185546875	1055.633056640625	-848.4921264648438	-1032.1279296875	1050.4716796875	-794.3577880859375	-907.9640502929688	829.549560546875	-779.082275390625	-937.1181640625	816.820068359375	-844.5828857421875	-957.4627685546875	950.1653442382812	-850.0237426757812	-923.2589111328125	645.6820678710938	-770.9954223632812	-940.5731201171875	728.3795166015625	-836.9663696289062	-892.7211303710938	728.3287963867188	-790.7044677734375	-953.6011962890625	1406.043090820312	-457.3082275390625	-969.560546875	1350.552978515625	-389.2156982421875	-1003.051818847656	1088.275146484375	-324.4403381347656	-1034.020874023438	1079.617553710938	-415.006103515625	-926.9220581054688	851.939208984375	-354.4636535644531	-978.3247680664062	856.914306640625	-286.1071166992188	-987.60888671875	1020.640319824219	-308.5282897949219	-939.0801391601562	667.9302368164062	-343.064208984375	-911.0598754882812	736.4912109375	-324.927734375	-966.6303100585938	743.6382446289062	-278.9794006347656	-1000.583801269531	1569.387939453125	-557.5921630859375	-804.056884765625	1623.521118164062	-618.9765014648438	-831.8048706054688	1613.366088867188	-530.4129028320312	-956.0521850585938	1575.427734375	-696.3458251953125	-1036.946411132812	944.0040893554688	-765.011962890625	-1015.128234863281	946.9411010742188	-389.9065551757812	-897.1350708007812	950.0101318359375	-460.5529174804688	-898.7010498046875	944.5848999023438	-713.0091552734375	-1008.231994628906	476.4945373535156	-716.2868041992188	-1000.658203125	618.4151000976562	-741.7446899414062	-1133.711669921875	46.8121223449707	-678.0770263671875	-1078.476928710938	257.1054077148438	-707.47900390625	-925.33251953125	39.84711456298828	-628.7948608398438	-993.7487182617188	32.70516967773438	-584.135498046875	-1011.503234863281	42.24295425415039	-696.321533203125	-1178.283325195312	42.21673583984375	-617.1207885742188	-864.7130737304688	493.8450012207031	-407.7472839355469	-913.3828735351562	750.4727783203125	-389.2096557617188	-1083.211303710938	99.33861541748047	-414.0316467285156	-890.7198486328125	369.7501220703125	-413.4835510253906	-901.9522094726562	45.11615371704102	-466.6899108886719	-957.845703125	51.17079925537109	-506.3343505859375	-988.6795654296875	56.04203033447266	-389.9000244140625	-1133.828857421875	111.8544616699219	-463.509765625	
127	1.26	-1113.233642578125	995.7142333984375	-496.4396057128906	-1103.820434570312	994.4293212890625	-670.9203491210938	-1085.398193359375	1074.748291015625	-589.5436401367188	-810.6380004882812	1221.964599609375	-588.4502563476562	-1082.711669921875	1191.2470703125	-596.7926635742188	-1004.982238769531	1427.197143554688	-621.854736328125	-861.3353271484375	1327.621948242188	-600.2478637695312	-1078.541748046875	1301.995971679688	-542.6373291015625	-1017.256042480469	1386.620483398438	-725.0179443359375	-924.3097534179688	1379.378784179688	-772.0772705078125	-954.6380615234375	1261.026123046875	-842.3496704101562	-959.8257446289062	1055.297973632812	-848.4976196289062	-1028.451171875	1050.334106445312	-795.1678466796875	-904.7351684570312	829.2220458984375	-778.239501953125	-933.2003173828125	816.4020385742188	-844.0225830078125	-953.2628173828125	949.7718505859375	-849.8416748046875	-920.3759765625	645.3440551757812	-770.0647583007812	-936.88525390625	727.98681640625	-836.3521118164062	-889.5247802734375	727.9456176757812	-789.5332641601562	-951.6698608398438	1405.71044921875	-457.2624816894531	-968.4954833984375	1350.413330078125	-389.3348693847656	-1004.306518554688	1088.56298828125	-324.3455810546875	-1034.247680664062	1079.868041992188	-415.2975158691406	-929.0065307617188	851.668212890625	-353.2525634765625	-981.2896118164062	857.1826782226562	-285.2350463867188	-989.3794555664062	1020.899108886719	-308.079345703125	-942.4678344726562	667.8796997070312	-341.2835998535156	-914.2824096679688	736.2767944335938	-323.0210266113281	-970.2705078125	743.8421630859375	-277.7040405273438	-997.351806640625	1569.168701171875	-557.8751831054688	-799.9846801757812	1622.630249023438	-617.4102783203125	-828.6923217773438	1612.448120117188	-529.0743408203125	-951.5258178710938	1575.175048828125	-696.2091064453125	-1034.602416992188	943.6795043945312	-765.4640502929688	-1014.431884765625	946.8038330078125	-390.239013671875	-895.9147338867188	949.8109130859375	-460.3404235839844	-896.7517700195312	943.9619140625	-712.9989624023438	-1006.439819335938	476.1259460449219	-716.3173217773438	-998.6947021484375	618.0562133789062	-741.8168334960938	-1133.63671875	46.89947128295898	-678.002685546875	-1077.416137695312	256.8544311523438	-707.4971313476562	-925.2681274414062	39.76679611206055	-628.7477416992188	-993.8853759765625	32.43321990966797	-584.04833984375	-1011.468139648438	42.2625617980957	-696.250244140625	-1178.236083984375	42.25930023193359	-617.0720825195312	-857.4805297851562	495.9323425292969	-406.3025512695312	-910.6517944335938	751.711181640625	-388.5250854492188	-1077.683349609375	102.4177703857422	-414.1243896484375	-883.3545532226562	371.8704833984375	-412.5694885253906	-897.1415405273438	45.8814582824707	-465.6825561523438	-952.5308837890625	52.38568878173828	-506.04345703125	-983.85595703125	57.91449737548828	-389.7366943359375	-1127.828369140625	115.3940582275391	-463.8304748535156	
